# xmcd
#
# Track frame offsets:
#	150
#	12760
#	25835
#	43845
#	58583
#	68189
#	80731
#	95108
#	106847
#	120229
#	134407
#	148879
#	162944
#	175822
#	186963
#	200548
#	215702
#	228450
#	241209
#	253869
#	267597
#	282431
#	297186
#	311777
#
# Disc length: 4306 seconds
#
# Revision: 0
# Processed by: cddbd v1.5.2PL0 Copyright (c) Steve Scherf et al.
# Submitted via: audiograbber 1.83.01
#
DISCID=7410d018
DTITLE=The Greatest Country Music Recordings Of All Time - Record 69 and 70
DYEAR=1900
DGENRE=
TTITLE0=Gene Autry - Back In The Saddle Again
TTITLE1=Carl T. Sprague - When The Work's All Done This Fall
TTITLE2=Marty Robbins - Big Iron
TTITLE3=Tex Ritter - Rye Whiskey
TTITLE4=Jimmy Wakely - Dust
TTITLE5=Elton Britt and Rosalie Allen - Yodel Blues
TTITLE6=Jules Verne Allen - Little Joe The Wrangler
TTITLE7=Foy Willing and the Riders Of The Purple Sage - Ghost Riders In The Sky
TTITLE8=Tex Owens - Cattle Call
TTITLE9=Tex Ritter - Bad Brama Bull
TTITLE10=Ken Maynard - Lone Star Trail
TTITLE11=Gene Autry - Mexicali Rose
TTITLE12=Gene Autry - South Of The Border
TTITLE13=Jimmy Wakely - Along The Santa Fe Trail
TTITLE14=Tex Ritter - There's A New Moon Over My Shoulder
TTITLE15=Beverly Hillbillys - The Strawberry Roan
TTITLE16=Gene Autry - My Rose Of The Prairie
TTITLE17=Ray Whitley - Wah-Hoo
TTITLE18=Tex Ritter - Jingle, Jangle, Jingle
TTITLE19=Jimmy Wakely - The Touch Of God's Hand
TTITLE20=Jimmie Rodgers - When The Cactus Is In Bloom
TTITLE21=The Gene Autry Trio - Tumbling Tumbleweed
TTITLE22=Rex Allen - I'm A Young Cowboy
TTITLE23=Rex Allen Jr. - Can You Hear Those Pioneers
EXTD=
EXTT0=
EXTT1=
EXTT2=
EXTT3=
EXTT4=
EXTT5=
EXTT6=
EXTT7=
EXTT8=
EXTT9=
EXTT10=
EXTT11=
EXTT12=
EXTT13=
EXTT14=
EXTT15=
EXTT16=
EXTT17=
EXTT18=
EXTT19=
EXTT20=
EXTT21=
EXTT22=
EXTT23=
PLAYORDER=
